<svg xmlns="http://www.w3.org/2000/svg" fill="none" viewBox="0 0 16 16"><path stroke="#000" stroke-linecap="round" stroke-linejoin="round" stroke-width="2" d="M1 4.111V2.556C1 1.7 1.7 1 2.556 1H4.11m7.778 0h1.555C14.3 1 15 1.7 15 2.556V4.11m0 7.778v1.555C15 14.3 14.3 15 13.444 15H11.89M4.11 15H2.556A1.56 1.56 0 0 1 1 13.444V11.89M4.889 4.11h3.889c.43 0 .778.348.778.778v2.333c0 .43-.349.778-.778.778h-3.89a.78.78 0 0 1-.777-.778V4.89c0-.43.348-.778.778-.778M7.222 8h3.89c.429 0 .777.348.777.778v2.333c0 .43-.348.778-.778.778H7.222a.78.78 0 0 1-.778-.778V8.778c0-.43.349-.778.778-.778"/></svg>